<?xml version="1.0" standalone="no"?>
<!DOCTYPE svg PUBLIC "-//W3C//DTD SVG 20010904//EN"
 "http://www.w3.org/TR/2001/REC-SVG-20010904/DTD/svg10.dtd">
<svg version="1.0" xmlns="http://www.w3.org/2000/svg"
 width="120.000000pt" height="143.000000pt" viewBox="0 0 120.000000 143.000000"
 preserveAspectRatio="xMidYMid meet">

<g transform="translate(0.000000,143.000000) scale(0.100000,-0.100000)"
fill="#000000" stroke="none">
<path d="M625 1192 c-23 -5 -201 -107 -228 -130 -9 -8 -22 -32 -28 -52 -10
-31 -8 -44 9 -82 26 -59 66 -78 165 -78 66 0 79 -3 118 -30 72 -49 154 -36
193 30 29 50 21 87 -47 199 -75 126 -117 159 -182 143z"/>
<path d="M237 874 c-22 -12 -42 -44 -83 -131 -85 -181 -74 -216 90 -293 128
-59 154 -65 200 -46 87 36 97 124 26 225 -35 50 -44 71 -49 123 -4 35 -13 73
-19 85 -27 49 -109 67 -165 37z"/>
<path d="M777 737 c-18 -18 -45 -55 -62 -83 -21 -35 -45 -57 -80 -76 -79 -42
-106 -109 -71 -177 28 -53 53 -61 196 -61 207 0 220 13 220 226 l0 136 -34 34
c-30 30 -40 34 -86 34 -46 0 -56 -4 -83 -33z"/>
</g>
</svg>
